<svg width="225" height="223" viewBox="0 0 225 223" fill="none" xmlns="http://www.w3.org/2000/svg">
<g id="path-plane-svg">
<path id="airplane-path" d="M1 222C20.5439 200.267 99.4111 149.84 115 127C123.587 114.419 139 77.151 139 41.5228C139 15.1328 114.024 1 106.086 1C98.1475 1 74.2399 3.96228 72.7515 28.7427C71.2631 53.5232 65.5279 80.8162 79.2012 77.151C98.5501 71.9644 78.0196 50.7565 72.5111 32.3153C64.8055 6.51852 43.48 8.21969 43.48 7.42002C43.48 6.62035 27.9824 8.48393 21.4707 20.586C14.9591 32.6881 5.28587 51.9351 33.5586 92.8516C63.8223 136.65 66 136.218 86.1406 151.163C123.535 178.911 140.362 186.598 168.691 147.458C201.855 101.641 201.262 88.8073 206 77.151" stroke="black" stroke-linecap="square" stroke-dasharray="8 8"/>
<g id="airplane">
<path id="Vector" d="M224.171 58.1495C224.109 57.271 223.576 56.4827 222.788 56.1028L208.696 50.175C208.337 41.3748 207.15 35.3119 205.052 35.323C202.954 35.334 202.241 41.4069 202.567 50.2073L188.943 56.2811C188.185 56.6692 187.714 57.4628 187.721 58.3416L187.735 60.4241C187.737 60.7389 187.878 61.0409 188.119 61.2474C188.36 61.4538 188.673 61.5429 188.975 61.4899C188.975 61.4899 199.742 59.6219 203.032 59.0213C203.423 65.663 203.722 69.3561 203.722 69.3561L200.132 71.3326C199.708 71.5277 199.443 72.001 199.463 72.527L199.493 73.2936C199.507 73.6456 199.647 73.9817 199.883 74.2225C200.118 74.4633 200.427 74.5873 200.736 74.5657L205.356 74.2443C205.551 75.4127 206.07 76.2696 206.649 76.2665C207.227 76.2635 207.678 75.4015 207.782 74.2315L212.426 74.5041C212.737 74.5224 213.036 74.3952 213.252 74.1521C213.469 73.9089 213.583 73.5713 213.569 73.2194L213.539 72.4528C213.519 71.9268 213.217 71.4565 212.778 71.266L209.034 69.3281C209.034 69.3281 209.046 65.6334 208.919 58.9903C212.254 59.556 223.163 61.3097 223.163 61.3097C223.468 61.3595 223.776 61.2672 224 61.0583C224.224 60.8493 224.34 60.546 224.319 60.2313L224.171 58.1495Z" fill="black"/>
</g>
</g>
</svg>
